# xmcd CD database file
#
# Track frame offsets:
#	187
#	19547
#	38465
#	61515
#	81645
#	97270
#	116185
#	136640
#	153402
#	169080
#	197365
#	214202
#	231975
#	246990
#	268692
#	284807
#
# Disc length: 4087 seconds
#
# Revision: 0
# Processed by: cddbd v1.5.2PL0 Copyright (c) Steve Scherf et al.
# Submitted via: CDex 1.51
#
DISCID=e30ff510
DTITLE=Ernie Carson and the Social Polecats - PINK ELEPHANTS
DYEAR=1992
DGENRE=Jazz
TTITLE0=Mighty Oregon
TTITLE1=Honey, I Could Fall In Love
TTITLE2=Molly Malone
TTITLE3=Look What You Missed
TTITLE4=I Wonder Where My Baby Is Tonight (Bill Rutan bjo and voc)
TTITLE5=Rosalie
TTITLE6=I Love My Steady
TTITLE7=Blues My Naughty Sweetie Gives To Me
TTITLE8=Don't Monkey With It
TTITLE9=Cinderella Girl
TTITLE10=Bedelia (Bill Rutan bjo and voc)
TTITLE11=I Don't Care
TTITLE12=All Racoons Look Alike To Me
TTITLE13=Sing Song Girl (Bill Rutan bjo and voc)
TTITLE14=When Your Hair Has Turned To Silver
TTITLE15=Pink Elephants
EXTD=YEAR: 1992
EXTT0=
EXTT1=
EXTT2=
EXTT3=
EXTT4=
EXTT5=
EXTT6=
EXTT7=
EXTT8=
EXTT9=
EXTT10=
EXTT11=
EXTT12=
EXTT13=
EXTT14=
EXTT15=
PLAYORDER=
